<svg version="1.1" id="Layer_1" xmlns="http://www.w3.org/2000/svg" xmlns:xlink="http://www.w3.org/1999/xlink" x="0px" y="0px"
	 viewBox="188.288 186.666 410.464 264.843"
	 enable-background="new 188.288 186.666 410.464 264.843" xml:space="preserve">
<path fill="#515352" d="M441.846,429.345c-2.716-7.436-6.163-14.686-7.121-22.595c-0.844-1.522-1.567-3.265-2.181-5.257
	c-2.014-6.553-5.113-12.77-7.717-19.141c-4.562-11.178-8.906-22.45-13.765-33.496c-0.975-2.217-9.778-21.606-11.234-30.258
	c-1.854-4.493-3.368-8.057-4.772-11.651c-4.219-10.796-8.497-21.571-12.525-32.44c-2.248-6.066-3.765-12.41-6.102-18.438
	c-6.226-16.055-12.755-31.992-19.086-48.008c-2.448-6.197-5.54-8.627-12.01-8.482c-3.078,0.068-5.93,0.134-8.646-1.787
	c-1.06-0.748-3.282-1.169-4.209-0.564c-4.436,2.894-10.912,3.604-11.847,10.528c-0.132,0.978-1.029,1.87-1.633,2.763
	c-3.984,5.893-8.112,11.693-11.946,17.681c-4.299,6.714-8.259,13.643-12.509,20.389c-5.4,8.571-10.99,17.022-16.404,25.585
	c-2.184,3.452-3.984,7.148-6.194,10.581c-3.851,5.978-7.93,11.808-11.83,17.754c-7.34,11.188-14.84,22.273-21.863,33.656
	c-7.587,12.298-14.734,24.868-22.019,37.353c-4.554,7.807-8.405,16.104-13.669,23.389c-5.663,7.838-9.053,16.639-13.033,25.211
	c-2.633,5.67-0.759,11.274,2.557,15.877c1.507,2.09,5.632,2.111,7.76,3.988c2.268,2,2.738,5.721,6.485,6.608
	c5.993,1.42,11.806,3.996,18.178,2.426c3.105-0.764,6.141-1.977,9.286-2.391c12.378-1.623,24.771-3.162,37.187-4.44
	c12.441-1.281,24.902-2.529,37.386-3.218c13.126-0.723,26.286-0.916,39.437-1.069c23.271-0.275,46.567-1.246,69.724,2.271
	c4.261,0.648,8.578,0.932,12.873,1.33c7.591,0.707,11.623-3.395,10.91-10.994c-0.076-0.811,0.104-1.646,0.212-3.104
	C441.633,429.382,441.739,429.362,441.846,429.345z M399.649,418.21c-6,0.552-13.367,1.039-19.386,1.383
	c-10.823,1.9-16.68,3.126-27.511,4.797c-5.84,1.156-9.542,1.527-13.708,1.722c-17.212,0.799-34.424,1.641-51.617,2.754
	c-16.974,1.098-33.916,2.688-50.891,3.762c-4.915,0.311-9.907-0.271-14.837-0.73c-1.864-0.172-3.765-0.938-5.452-1.812
	c-3.784-1.969-3.915-3.172-2.804-7.305c4.934-18.365,14.408-34.482,24.443-50.365c11.609-18.377,22.999-36.891,34.614-55.262
	c8.523-13.479,17.312-26.789,25.885-40.235c9.482-14.871,18.705-29.911,28.371-44.66c2.726-4.157,4.707-9.258,10.342-11.799
	c9.041,9.659,13.407,21.16,17.938,32.571c1.106,2.791,2.265,5.562,3.311,8.377c4.868,13.086,9.644,26.209,14.571,39.272
	c4.607,12.212,9.288,24.399,14.131,36.52c0.792,1.981,8.951,28.966,9.351,28.669c4.206,5.863,19.126,44.145,19.479,50.022
	C410.031,416.612,405.576,417.663,399.649,418.21z"/>
<path fill="#515352" d="M598.254,412.167c-0.922-4.148-2.797-8.102-4.43-12.066c-0.816-1.979-2.264-3.698-3.053-5.686
	c-3.423-8.605-6.15-17.539-10.195-25.834c-4.062-8.324-5.562-17.428-9.57-25.82c-5.312-11.131-8.779-23.136-13.846-34.469
	c-3.857-8.63-7.197-17.504-10.492-26.371c-6.004-16.158-11.949-32.342-17.637-48.613c-4.338-12.406-8.388-24.921-12.279-37.476
	c-2.715-8.755-10.492-11.63-18.453-6.915c-2.82,1.671-6.426,1.988-9.641,3.031c-2.375,0.771-5.273,1.115-6.928,2.703
	c-4.32,4.148-8.453,8.604-11.982,13.434c-4.92,6.734-9.262,13.894-13.779,20.916c-6.647,10.33-13.375,20.613-19.803,31.078
	c-5.412,8.812-10.104,18.08-15.742,26.74c-6.699,10.287-13.213,20.613-17.803,32.051c-0.359,0.893-1.332,1.537-3.104,3.496
	c-0.032-0.079-0.062-0.151-0.096-0.23c-1.603,5.136-5.89,9.213-8.351,13.914c-1.244,2.379-4.404,8.65-5.056,9.675
	c-2.879,4.528-5.729,9.083-8.364,13.756c-3.586,6.355-6.931,12.847-10.429,19.251c-5.67,10.385-11.539,20.665-16.975,31.168
	c-1.527,2.95-2.24,6.489-2.617,9.84c-0.061,0.544-0.137,1.047-0.223,1.531c0.449,2.682,0.713,5.418,1.379,8.102
	c1.059,4.262,3.44,7.779,6.856,10.189c17.65,0.758,35.439-0.119,52.825-3.259c9.242-1.67,18.263-4.219,27.64-5.123
	c6.62-0.641,13.268-0.811,19.903-0.545c4.736-0.047,9.476-0.033,14.199,0.176c13.367,0.593,26.721,1.48,40.078,2.298
	c8.611,0.526,17.225,1.719,25.824,1.6c14.532-0.203,28.848,0.459,42.83,4.912c5.137,1.637,11.278-4.426,10.233-9.723
	c-0.926-4.688-0.926-4.688,3.662-6.921C598.303,420.319,599.615,418.294,598.254,412.167z M569.115,417.761
	c-2.754,2.103-5.748,2.625-9.113,2.619c-7.973-0.008-15.947,0.359-23.922,0.348c-4.309-0.006-8.619-0.432-12.922-0.754
	c-12.033-0.901-24.053-2.037-36.099-2.721c-9.034-0.512-18.1-0.521-27.153-0.643c-3.648-0.052-7.303,0.188-10.955,0.317
	c-0.779,0.028-1.521,0.015-2.24-0.02c-4.213,0.67-8.477,1.053-12.707,1.229c-7.893,0.334-15.846,0.041-23.646-1.261
	c-4.517,0.59-9.06,1.203-13.62,1.624c-6.219,0.572-12.463,0.855-18.699,1.217c-1.723,0.101-3.572,0.394-5.145-0.1
	c-1.119-0.353-2.646-1.873-2.644-2.867c0.008-2.539,0.232-5.342,1.33-7.564c3.432-6.938,7.307-13.662,11.016-20.464
	c1.752-3.213,3.529-6.412,5.277-9.627c1.762-3.242,3.25-6.684,6.219-9.486c1.269-2.176,2.881-4.229,4.074-6.031
	c2.097-3.167,3.253-6.755,4.884-10.166c2.004-4.193,4.332-8.18,6.938-12.025c0.035-0.051,0.076-0.084,0.119-0.116
	c0.577-1.507,1.356-2.99,2.217-4.5c6.506-11.43,12.731-23.022,19.387-34.366c6.535-11.141,13.344-22.125,20.242-33.047
	c5.975-9.457,11.848-19.021,18.52-27.978c4.318-5.795,7.98-12.348,14.369-16.465c1.164-0.749,1.738-2.401,2.604-3.624
	c0.987-1.402,1.785-3.029,3.033-4.146c6.866-6.134,7.688-5.853,11.125,2.79c6.131,15.41,12.51,30.724,18.45,46.205
	c3.476,9.054,6.086,18.436,9.48,27.523c3.678,9.853,7.861,19.516,11.731,29.297c1.744,4.406,3.175,8.938,4.908,13.35
	c3.226,8.207,6.633,16.344,9.851,24.555c3.682,9.398,6.772,19.061,11.002,28.201c3.289,7.105,6.102,14.26,7.844,21.859
	c0.231,1.015,0.297,2.064,0.473,3.34C572.826,415.651,570.795,416.476,569.115,417.761z"/>
</svg>
