<?xml version="1.0" encoding="utf-8"?>
<!-- Generator: Adobe Illustrator 16.0.4, SVG Export Plug-In . SVG Version: 6.00 Build 0)  -->
<!DOCTYPE svg PUBLIC "-//W3C//DTD SVG 1.1//EN" "http://www.w3.org/Graphics/SVG/1.1/DTD/svg11.dtd">
<svg version="1.1" id="Layer_1" xmlns="http://www.w3.org/2000/svg" xmlns:xlink="http://www.w3.org/1999/xlink" x="0px" y="0px"
	 width="32px" height="32px" viewBox="0 0 32 32" enable-background="new 0 0 32 32" xml:space="preserve">
<g>
	<path fill="#515352" d="M19.768,24.594c-0.212-0.579-0.481-1.144-0.556-1.76c-0.066-0.12-0.122-0.255-0.17-0.411
		c-0.157-0.511-0.398-0.995-0.602-1.491c-0.355-0.872-0.694-1.75-1.073-2.611c-0.075-0.173-0.762-1.684-0.875-2.359
		c-0.145-0.351-0.262-0.628-0.372-0.908c-0.329-0.842-0.663-1.682-0.977-2.529c-0.176-0.473-0.293-0.967-0.476-1.438
		c-0.486-1.251-0.994-2.493-1.488-3.742c-0.191-0.483-0.432-0.672-0.937-0.662c-0.24,0.005-0.462,0.011-0.674-0.139
		c-0.083-0.058-0.256-0.091-0.328-0.044c-0.346,0.226-0.851,0.281-0.923,0.82c-0.01,0.077-0.08,0.146-0.127,0.216
		C9.88,7.996,9.559,8.448,9.26,8.915c-0.335,0.523-0.644,1.063-0.975,1.589c-0.421,0.668-0.857,1.327-1.278,1.994
		c-0.17,0.27-0.311,0.558-0.483,0.825c-0.3,0.466-0.618,0.921-0.922,1.384c-0.573,0.872-1.157,1.736-1.705,2.623
		c-0.591,0.959-1.148,1.938-1.716,2.912c-0.355,0.609-0.655,1.256-1.065,1.824c-0.441,0.61-0.706,1.297-1.016,1.965
		c-0.206,0.442-0.059,0.879,0.199,1.238c0.118,0.162,0.439,0.164,0.605,0.311c0.177,0.155,0.213,0.445,0.505,0.515
		c0.467,0.11,0.92,0.311,1.417,0.189c0.242-0.061,0.479-0.154,0.724-0.187c0.965-0.127,1.931-0.246,2.899-0.346
		c0.97-0.101,1.941-0.198,2.914-0.252c1.023-0.056,2.049-0.07,3.074-0.083c1.814-0.021,3.63-0.097,5.435,0.177
		c0.333,0.051,0.669,0.073,1.005,0.104c0.591,0.055,0.905-0.265,0.851-0.858c-0.007-0.062,0.007-0.128,0.016-0.241
		C19.751,24.598,19.759,24.596,19.768,24.594z M16.478,23.727c-0.468,0.043-1.042,0.08-1.511,0.107
		c-0.844,0.148-1.301,0.244-2.145,0.375c-0.455,0.089-0.743,0.118-1.068,0.134c-1.342,0.062-2.683,0.127-4.023,0.214
		c-1.323,0.086-2.644,0.21-3.967,0.294c-0.383,0.023-0.772-0.021-1.157-0.058c-0.145-0.014-0.293-0.073-0.424-0.141
		c-0.295-0.154-0.305-0.247-0.219-0.569c0.385-1.433,1.123-2.688,1.905-3.927c0.905-1.432,1.793-2.875,2.698-4.307
		c0.665-1.051,1.35-2.088,2.018-3.136c0.739-1.16,1.458-2.332,2.212-3.481c0.212-0.325,0.367-0.722,0.806-0.92
		C12.307,9.064,12.647,9.96,13,10.85c0.086,0.218,0.176,0.434,0.258,0.653c0.379,1.021,0.752,2.043,1.136,3.062
		c0.359,0.952,0.724,1.901,1.102,2.846c0.062,0.154,0.698,2.258,0.729,2.235c0.328,0.457,1.491,3.44,1.519,3.899
		C17.287,23.602,16.94,23.684,16.478,23.727z"/>
	<path fill="#515352" d="M31.959,23.255c-0.071-0.323-0.217-0.632-0.345-0.939c-0.063-0.154-0.177-0.289-0.238-0.444
		c-0.267-0.67-0.479-1.366-0.794-2.013c-0.317-0.649-0.435-1.359-0.746-2.013c-0.414-0.868-0.686-1.804-1.079-2.688
		c-0.301-0.673-0.562-1.364-0.818-2.056c-0.469-1.259-0.932-2.521-1.375-3.79c-0.338-0.967-0.654-1.943-0.957-2.921
		c-0.212-0.683-0.818-0.906-1.439-0.539c-0.22,0.131-0.501,0.155-0.751,0.236c-0.185,0.061-0.411,0.087-0.54,0.211
		c-0.336,0.323-0.659,0.67-0.934,1.047c-0.384,0.524-0.722,1.083-1.075,1.63c-0.518,0.805-1.041,1.607-1.543,2.423
		c-0.422,0.687-0.788,1.409-1.227,2.084c-0.522,0.802-1.03,1.607-1.388,2.499c-0.028,0.069-0.104,0.12-0.242,0.272
		c-0.002-0.006-0.005-0.012-0.007-0.017c-0.125,0.399-0.458,0.718-0.651,1.084c-0.097,0.185-0.343,0.674-0.394,0.754
		c-0.225,0.354-0.446,0.708-0.652,1.072c-0.279,0.496-0.54,1.002-0.812,1.501c-0.442,0.809-0.899,1.611-1.323,2.429
		c-0.119,0.23-0.175,0.507-0.204,0.768c-0.005,0.042-0.011,0.082-0.018,0.119c0.035,0.209,0.056,0.423,0.108,0.632
		c0.083,0.332,0.268,0.606,0.535,0.794c1.375,0.059,2.762-0.01,4.117-0.253c0.721-0.131,1.424-0.33,2.154-0.4
		c0.517-0.05,1.035-0.062,1.552-0.043c0.369-0.003,0.739-0.002,1.106,0.014c1.042,0.047,2.083,0.116,3.125,0.18
		c0.671,0.041,1.343,0.134,2.013,0.125c1.133-0.016,2.248,0.035,3.339,0.382c0.4,0.128,0.879-0.344,0.798-0.757
		c-0.072-0.365-0.072-0.365,0.285-0.54C31.963,23.891,32.065,23.732,31.959,23.255z M29.688,23.691
		c-0.215,0.164-0.447,0.205-0.71,0.204c-0.621,0-1.243,0.028-1.864,0.027c-0.336,0-0.672-0.034-1.008-0.059
		c-0.938-0.071-1.875-0.159-2.814-0.213c-0.704-0.039-1.41-0.039-2.116-0.05c-0.285-0.003-0.569,0.016-0.854,0.025
		c-0.061,0.002-0.118,0.001-0.174-0.001c-0.328,0.052-0.661,0.082-0.991,0.096c-0.615,0.025-1.234,0.002-1.843-0.099
		c-0.352,0.046-0.706,0.093-1.062,0.126c-0.485,0.044-0.972,0.066-1.458,0.096c-0.134,0.007-0.279,0.029-0.401-0.009
		c-0.087-0.027-0.207-0.146-0.207-0.223c0-0.198,0.019-0.417,0.104-0.591c0.268-0.541,0.57-1.064,0.859-1.595
		c0.137-0.25,0.275-0.5,0.412-0.75c0.137-0.253,0.253-0.521,0.485-0.74c0.099-0.169,0.224-0.329,0.317-0.47
		c0.164-0.247,0.254-0.527,0.38-0.792c0.156-0.327,0.337-0.638,0.542-0.938c0.003-0.004,0.005-0.008,0.009-0.01
		c0.045-0.117,0.105-0.232,0.173-0.351c0.508-0.891,0.992-1.794,1.511-2.679c0.51-0.869,1.041-1.725,1.579-2.576
		c0.465-0.737,0.923-1.483,1.443-2.182c0.336-0.451,0.622-0.962,1.12-1.283c0.09-0.058,0.135-0.187,0.203-0.283
		c0.077-0.109,0.139-0.235,0.236-0.323c0.534-0.479,0.599-0.456,0.867,0.217c0.478,1.202,0.975,2.395,1.438,3.602
		c0.271,0.706,0.475,1.438,0.74,2.146c0.285,0.769,0.611,1.521,0.913,2.284c0.137,0.343,0.248,0.697,0.384,1.04
		c0.251,0.641,0.517,1.274,0.767,1.915c0.287,0.732,0.528,1.485,0.858,2.198c0.256,0.553,0.476,1.111,0.611,1.703
		c0.019,0.079,0.023,0.161,0.037,0.261C29.978,23.527,29.818,23.591,29.688,23.691z"/>
</g>
</svg>
