<svg version="1.1" id="Layer_1" xmlns="http://www.w3.org/2000/svg" xmlns:xlink="http://www.w3.org/1999/xlink" x="0px" y="0px" viewBox="0 0 193.782 125.86" style="enable-background:new 0 0 193.782 125.86;"
	 xml:space="preserve">
<g id="mark">
	<g style="opacity:0.4;">
		<path style="fill:#171617;" d="M109.014,108.502H25.273c-0.341,0-0.658-0.174-0.842-0.461c-0.184-0.286-0.209-0.647-0.067-0.957
			l41.871-91.027c0.164-0.354,0.518-0.582,0.909-0.582s0.745,0.228,0.909,0.582l41.869,91.027c0.143,0.31,0.117,0.671-0.066,0.957
			C109.672,108.328,109.355,108.502,109.014,108.502z M26.834,106.502h80.62L67.145,18.868L26.834,106.502z"/>
	</g>
	<g style="opacity:0.4;">
		<path style="fill:#171617;" d="M167.033,108.502h-83.74c-0.341,0-0.658-0.174-0.842-0.461c-0.184-0.286-0.209-0.647-0.067-0.957
			l41.869-91.027c0.163-0.354,0.518-0.582,0.908-0.582s0.745,0.228,0.908,0.582l41.872,91.027c0.143,0.31,0.117,0.671-0.066,0.957
			C167.691,108.328,167.374,108.502,167.033,108.502z M84.853,106.502h80.619l-40.312-87.634L84.853,106.502z"/>
	</g>
	<g style="opacity:0.4;">
		<path style="fill:#171617;" d="M192.782,125.863c-0.005,0-0.012,0.001-0.02,0H1c-0.339,0-0.654-0.172-0.839-0.456
			s-0.212-0.643-0.074-0.951L55.363,0.592C55.524,0.232,55.882,0,56.276,0h79.163c0.39,0,0.744,0.227,0.907,0.58l57.247,123.698
			c0.119,0.165,0.188,0.366,0.188,0.585C193.782,125.416,193.334,125.863,192.782,125.863z M2.542,123.863h188.656L134.8,2H56.925
			L2.542,123.863z"/>
	</g>
</g>
</svg>
