<svg version="1.1" id="Layer_1" xmlns="http://www.w3.org/2000/svg" xmlns:xlink="http://www.w3.org/1999/xlink" x="0px" y="0px" viewBox="0 0 193.782 179.699" style="enable-background:new 0 0 193.782 179.699;"
	 xml:space="preserve">
<g id="mark">
	<g style="opacity:0.4;">
		<path style="fill:#171617;" d="M109.014,108.502H25.273c-0.341,0-0.658-0.174-0.842-0.461c-0.184-0.286-0.209-0.647-0.067-0.957
			l41.871-91.027c0.164-0.354,0.518-0.582,0.909-0.582s0.745,0.228,0.909,0.582l41.869,91.027c0.143,0.31,0.117,0.671-0.066,0.957
			C109.672,108.328,109.355,108.502,109.014,108.502z M26.834,106.502h80.62L67.145,18.868L26.834,106.502z"/>
	</g>
	<g style="opacity:0.4;">
		<path style="fill:#171617;" d="M167.033,108.502h-83.74c-0.341,0-0.658-0.174-0.842-0.461c-0.184-0.286-0.209-0.647-0.067-0.957
			l41.869-91.027c0.163-0.354,0.518-0.582,0.908-0.582s0.745,0.228,0.908,0.582l41.872,91.027c0.143,0.31,0.117,0.671-0.066,0.957
			C167.691,108.328,167.374,108.502,167.033,108.502z M84.853,106.502h80.619l-40.312-87.634L84.853,106.502z"/>
	</g>
	<g style="opacity:0.4;">
		<path style="fill:#171617;" d="M192.782,125.863c-0.005,0-0.012,0.001-0.02,0H1c-0.339,0-0.654-0.172-0.839-0.456
			s-0.212-0.643-0.074-0.951L55.363,0.592C55.524,0.232,55.882,0,56.276,0h79.163c0.39,0,0.744,0.227,0.907,0.58l57.247,123.698
			c0.119,0.165,0.188,0.366,0.188,0.585C193.782,125.416,193.334,125.863,192.782,125.863z M2.542,123.863h188.656L134.8,2H56.925
			L2.542,123.863z"/>
	</g>
</g>
<g id="logo_text" style="opacity:0.8;">
	<path style="fill:#161616;" d="M8.314,142.154l-1.477,0.875c-0.276-0.48-0.539-0.793-0.789-0.938
		c-0.261-0.168-0.597-0.25-1.008-0.25c-0.505,0-0.925,0.143-1.258,0.43c-0.333,0.281-0.5,0.635-0.5,1.062
		c0,0.588,0.438,1.062,1.312,1.422l1.203,0.492c0.979,0.395,1.695,0.879,2.148,1.449s0.68,1.27,0.68,2.098
		c0,1.109-0.37,2.025-1.109,2.75c-0.745,0.729-1.669,1.094-2.773,1.094c-1.047,0-1.912-0.311-2.594-0.93
		c-0.672-0.621-1.091-1.492-1.258-2.617l1.844-0.406c0.083,0.707,0.229,1.197,0.438,1.469c0.375,0.52,0.922,0.781,1.641,0.781
		c0.567,0,1.039-0.191,1.414-0.57c0.375-0.381,0.562-0.863,0.562-1.445c0-0.234-0.033-0.449-0.098-0.645
		c-0.065-0.195-0.167-0.375-0.305-0.539c-0.138-0.164-0.316-0.318-0.535-0.461c-0.219-0.145-0.479-0.281-0.781-0.41l-1.164-0.484
		c-1.651-0.699-2.477-1.719-2.477-3.062c0-0.906,0.346-1.664,1.039-2.273c0.692-0.615,1.555-0.922,2.586-0.922
		C6.447,140.123,7.533,140.799,8.314,142.154z"/>
	<path style="fill:#161616;" d="M21.783,149.49h-5.164l-1.344,2.93h-1.961l5.969-12.82l5.758,12.82h-1.992L21.783,149.49z
		 M21.041,147.779l-1.789-4.102l-1.875,4.102H21.041z"/>
	<path style="fill:#161616;" d="M30.549,152.42v-12.883l8.797,9.203v-8.383h1.82v12.797l-8.797-9.18v8.445H30.549z"/>
	<path style="fill:#161616;" d="M57.08,141.006v2.156c-1.052-0.881-2.141-1.32-3.266-1.32c-1.24,0-2.284,0.445-3.133,1.336
		c-0.854,0.885-1.281,1.969-1.281,3.25c0,1.266,0.427,2.332,1.281,3.203c0.854,0.869,1.901,1.305,3.141,1.305
		c0.641,0,1.185-0.105,1.633-0.312c0.25-0.105,0.509-0.246,0.777-0.422c0.268-0.178,0.551-0.391,0.848-0.641v2.195
		c-1.042,0.588-2.136,0.883-3.281,0.883c-1.724,0-3.195-0.602-4.414-1.805c-1.214-1.215-1.82-2.678-1.82-4.391
		c0-1.537,0.508-2.906,1.523-4.109c1.25-1.475,2.867-2.211,4.852-2.211C55.022,140.123,56.069,140.416,57.08,141.006z"/>
	<path style="fill:#161616;" d="M65.533,145.076h5.203v-4.719h1.82v12.062h-1.82v-5.633h-5.203v5.633h-1.82v-12.062h1.82V145.076z"
		/>
	<path style="fill:#161616;" d="M86.104,142.068h-4.836v2.898h4.695v1.711h-4.695v4.031h4.836v1.711h-6.656v-12.062h6.656V142.068z"
		/>
	<path style="fill:#161616;" d="M94.58,150.709h5.79v1.711h-8.782l5.922-10.352h-4.953v-1.711h7.946L94.58,150.709z"/>
	<path style="fill:#161616;" d="M122.251,142.154l-1.477,0.875c-0.276-0.48-0.539-0.793-0.789-0.938
		c-0.261-0.168-0.597-0.25-1.008-0.25c-0.505,0-0.925,0.143-1.258,0.43c-0.333,0.281-0.5,0.635-0.5,1.062
		c0,0.588,0.438,1.062,1.312,1.422l1.203,0.492c0.979,0.395,1.695,0.879,2.148,1.449s0.68,1.27,0.68,2.098
		c0,1.109-0.37,2.025-1.109,2.75c-0.745,0.729-1.669,1.094-2.773,1.094c-1.047,0-1.911-0.311-2.594-0.93
		c-0.672-0.621-1.091-1.492-1.258-2.617l1.844-0.406c0.083,0.707,0.229,1.197,0.438,1.469c0.375,0.52,0.922,0.781,1.641,0.781
		c0.567,0,1.039-0.191,1.414-0.57c0.375-0.381,0.562-0.863,0.562-1.445c0-0.234-0.032-0.449-0.098-0.645s-0.167-0.375-0.305-0.539
		s-0.316-0.318-0.535-0.461c-0.219-0.145-0.479-0.281-0.781-0.41l-1.164-0.484c-1.651-0.699-2.477-1.719-2.477-3.062
		c0-0.906,0.347-1.664,1.039-2.273c0.692-0.615,1.555-0.922,2.586-0.922C120.384,140.123,121.47,140.799,122.251,142.154z"/>
	<path style="fill:#161616;" d="M132.314,142.068v10.352h-1.82v-10.352h-2.773v-1.711h7.359v1.711H132.314z"/>
	<path style="fill:#161616;" d="M142.525,140.357v7.266c0,1.035,0.169,1.793,0.508,2.273c0.505,0.691,1.216,1.039,2.133,1.039
		c0.922,0,1.636-0.348,2.141-1.039c0.339-0.465,0.508-1.223,0.508-2.273v-7.266h1.82v7.766c0,1.27-0.396,2.316-1.188,3.141
		c-0.891,0.916-1.984,1.375-3.281,1.375s-2.388-0.459-3.273-1.375c-0.792-0.824-1.188-1.871-1.188-3.141v-7.766H142.525z"/>
	<path style="fill:#161616;" d="M156.525,152.42v-12.062h2.531c1.214,0,2.172,0.119,2.875,0.359c0.755,0.234,1.44,0.633,2.055,1.195
		c1.245,1.135,1.867,2.627,1.867,4.477c0,1.854-0.648,3.354-1.945,4.5c-0.651,0.572-1.333,0.971-2.047,1.195
		c-0.667,0.223-1.612,0.336-2.836,0.336H156.525z M158.345,150.709h0.82c0.817,0,1.497-0.086,2.039-0.258
		c0.542-0.184,1.031-0.473,1.469-0.867c0.896-0.818,1.344-1.883,1.344-3.195c0-1.324-0.442-2.396-1.328-3.219
		c-0.797-0.734-1.972-1.102-3.523-1.102h-0.82V150.709z"/>
	<path style="fill:#161616;" d="M173.962,140.357v12.062h-1.82v-12.062H173.962z"/>
	<path style="fill:#161616;" d="M180.259,146.334c0-1.699,0.622-3.156,1.867-4.375c1.239-1.219,2.729-1.828,4.469-1.828
		c1.719,0,3.192,0.613,4.422,1.844c1.234,1.229,1.852,2.705,1.852,4.43c0,1.734-0.62,3.205-1.859,4.414
		c-1.245,1.213-2.747,1.82-4.508,1.82c-1.558,0-2.956-0.539-4.195-1.617C180.942,149.828,180.259,148.266,180.259,146.334z
		 M182.095,146.357c0,1.332,0.448,2.43,1.344,3.289c0.891,0.859,1.919,1.289,3.086,1.289c1.266,0,2.333-0.438,3.203-1.312
		c0.87-0.887,1.305-1.965,1.305-3.234c0-1.287-0.43-2.365-1.289-3.234c-0.854-0.875-1.911-1.312-3.172-1.312
		c-1.255,0-2.315,0.438-3.18,1.312C182.528,144.018,182.095,145.086,182.095,146.357z"/>
	<path style="fill:#161616;" d="M38.618,169.328H38.24c0.229-0.873,0.536-1.309,0.923-1.309c0.234,0,0.478,0.146,0.729,0.439
		c0.246,0.281,0.454,0.422,0.624,0.422c0.164,0,0.281-0.133,0.352-0.396c0.094-0.34,0.231-0.51,0.413-0.51s0.272,0.082,0.272,0.246
		c0,0.076-0.161,0.393-0.483,0.949c-0.744,1.266-1.229,2.314-1.455,3.146s-0.338,1.404-0.338,1.715c0,0.299,0.072,0.553,0.215,0.76
		c0.144,0.209,0.347,0.312,0.611,0.312c0.387,0,0.835-0.186,1.345-0.555s0.917-0.738,1.222-1.107
		c-0.018-0.146-0.026-0.301-0.026-0.465c0-1.207,0.243-2.342,0.729-3.406c0.486-1.062,0.999-1.596,1.538-1.596
		c0.223,0,0.388,0.08,0.497,0.238s0.163,0.395,0.163,0.711c0,0.539-0.151,1.131-0.453,1.775s-0.757,1.342-1.367,2.092
		c0.053,0.744,0.201,1.322,0.444,1.732s0.546,0.615,0.91,0.615c0.346,0,0.747-0.203,1.204-0.611
		c0.457-0.406,0.866-1.021,1.226-1.846c0.36-0.822,0.541-1.52,0.541-2.088c0-0.34-0.094-0.711-0.281-1.115
		c-0.17-0.363-0.255-0.668-0.255-0.914c0-0.182,0.048-0.326,0.145-0.432s0.201-0.158,0.312-0.158c0.164,0,0.316,0.115,0.457,0.344
		s0.211,0.609,0.211,1.143c0,0.773-0.186,1.715-0.558,2.826c-0.372,1.109-0.891,1.951-1.556,2.521
		c-0.665,0.572-1.302,0.857-1.912,0.857c-0.516,0-0.933-0.189-1.252-0.566c-0.319-0.379-0.52-0.77-0.602-1.174
		c-0.562,0.58-1.104,1.016-1.626,1.309s-1.022,0.439-1.503,0.439c-0.486,0-0.854-0.148-1.103-0.447s-0.374-0.672-0.374-1.117
		c0-0.979,0.63-2.361,1.89-4.148c0.311-0.428,0.492-0.691,0.545-0.791c-0.252,0.141-0.489,0.211-0.712,0.211
		c-0.205,0-0.422-0.107-0.65-0.324c-0.1-0.1-0.188-0.15-0.264-0.15c-0.141,0-0.255,0.115-0.343,0.344L38.618,169.328z
		 M43.681,172.256c0.498-0.668,0.872-1.281,1.121-1.842c0.249-0.559,0.374-1.062,0.374-1.508c0-0.182-0.025-0.316-0.075-0.408
		c-0.05-0.09-0.127-0.137-0.233-0.137c-0.234,0-0.494,0.293-0.778,0.879s-0.426,1.439-0.426,2.559
		C43.663,171.928,43.669,172.08,43.681,172.256z"/>
	<path style="fill:#161616;" d="M62.305,173.178h0.422c-0.744,1.658-1.699,2.488-2.865,2.488c-0.48,0-0.872-0.17-1.173-0.506
		s-0.453-0.793-0.453-1.367c0-0.727,0.195-1.547,0.584-2.461s0.943-1.701,1.661-2.363s1.343-0.994,1.876-0.994
		c0.328,0,0.577,0.105,0.747,0.312c0.17,0.209,0.255,0.467,0.255,0.777c0,0.633-0.316,1.242-0.949,1.824
		c-0.633,0.584-1.582,1.145-2.848,1.684c-0.164,0.51-0.246,0.992-0.246,1.449c0,0.375,0.073,0.656,0.22,0.844
		s0.363,0.281,0.65,0.281C60.989,175.146,61.695,174.49,62.305,173.178z M59.694,172.123c0.756-0.34,1.436-0.809,2.039-1.406
		s0.905-1.139,0.905-1.625c0-0.223-0.045-0.389-0.136-0.496c-0.091-0.109-0.227-0.164-0.409-0.164c-0.352,0-0.766,0.342-1.244,1.025
		C60.373,170.139,59.987,171.027,59.694,172.123z"/>
	<path style="fill:#161616;" d="M79.057,173.82h0.431c-0.264,0.48-0.596,0.908-0.998,1.283s-0.769,0.562-1.103,0.562
		c-0.311,0-0.545-0.094-0.703-0.281s-0.237-0.467-0.237-0.836c0-0.17,0.015-0.324,0.044-0.465c-0.832,1.055-1.603,1.582-2.312,1.582
		c-0.398,0-0.738-0.162-1.02-0.484s-0.422-0.787-0.422-1.396c0-0.85,0.234-1.762,0.703-2.738c0.469-0.975,1.049-1.73,1.74-2.268
		c0.691-0.535,1.292-0.805,1.802-0.805c0.264,0,0.488,0.062,0.672,0.186s0.333,0.307,0.444,0.553l1.072-3.541
		c0.129-0.422,0.193-0.678,0.193-0.766c0-0.141-0.04-0.24-0.119-0.299s-0.274-0.088-0.584-0.088h-0.246l0.114-0.369
		c0.85,0,1.526-0.105,2.03-0.316h0.22l-2.812,9.256c-0.346,1.143-0.519,1.816-0.519,2.021c0,0.146,0.028,0.256,0.083,0.33
		c0.056,0.072,0.136,0.109,0.242,0.109c0.176,0,0.371-0.104,0.584-0.309S78.805,174.23,79.057,173.82z M73.748,174.189
		c0,0.328,0.057,0.576,0.171,0.742c0.114,0.168,0.283,0.25,0.505,0.25c0.393,0,0.847-0.273,1.362-0.82
		c0.516-0.549,0.99-1.451,1.424-2.707c0.434-1.258,0.65-2.053,0.65-2.387c0-0.217-0.073-0.414-0.22-0.59s-0.34-0.264-0.58-0.264
		c-0.381,0-0.781,0.225-1.2,0.674c-0.419,0.447-0.876,1.225-1.371,2.328C73.996,172.521,73.748,173.445,73.748,174.189z"/>
	<path style="fill:#161616;" d="M95.378,173.82h0.431c-0.264,0.48-0.596,0.908-0.998,1.283s-0.769,0.562-1.103,0.562
		c-0.311,0-0.545-0.094-0.703-0.281s-0.237-0.467-0.237-0.836c0-0.17,0.015-0.324,0.044-0.465c-0.832,1.055-1.603,1.582-2.312,1.582
		c-0.398,0-0.738-0.162-1.02-0.484s-0.422-0.787-0.422-1.396c0-0.85,0.234-1.762,0.703-2.738c0.469-0.975,1.049-1.73,1.74-2.268
		c0.691-0.535,1.292-0.805,1.802-0.805c0.264,0,0.488,0.062,0.672,0.186s0.333,0.307,0.444,0.553l1.072-3.541
		c0.129-0.422,0.193-0.678,0.193-0.766c0-0.141-0.04-0.24-0.119-0.299s-0.274-0.088-0.584-0.088h-0.246l0.114-0.369
		c0.85,0,1.526-0.105,2.03-0.316h0.22l-2.812,9.256c-0.346,1.143-0.519,1.816-0.519,2.021c0,0.146,0.028,0.256,0.083,0.33
		c0.056,0.072,0.136,0.109,0.242,0.109c0.176,0,0.371-0.104,0.584-0.309S95.126,174.23,95.378,173.82z M90.069,174.189
		c0,0.328,0.057,0.576,0.171,0.742c0.114,0.168,0.283,0.25,0.505,0.25c0.393,0,0.847-0.273,1.362-0.82
		c0.516-0.549,0.99-1.451,1.424-2.707c0.434-1.258,0.65-2.053,0.65-2.387c0-0.217-0.073-0.414-0.22-0.59s-0.34-0.264-0.58-0.264
		c-0.381,0-0.781,0.225-1.2,0.674c-0.419,0.447-0.876,1.225-1.371,2.328C90.317,172.521,90.069,173.445,90.069,174.189z"/>
	<path style="fill:#161616;" d="M108.887,173.494h0.422c-0.275,0.568-0.635,1.072-1.077,1.512s-0.868,0.66-1.278,0.66
		c-0.275,0-0.518-0.1-0.726-0.295s-0.312-0.484-0.312-0.865c0-0.311,0.164-0.906,0.492-1.785l1.01-2.68
		c0.234-0.627,0.352-1.008,0.352-1.143c0-0.117-0.027-0.205-0.083-0.264s-0.14-0.088-0.251-0.088c-0.229,0-0.499,0.178-0.812,0.531
		c-0.313,0.355-0.535,0.676-0.664,0.963h-0.422c0.322-0.639,0.69-1.143,1.104-1.512s0.799-0.555,1.156-0.555
		c0.275,0,0.5,0.094,0.676,0.281s0.264,0.434,0.264,0.738c0,0.311-0.154,0.879-0.465,1.705l-0.844,2.285
		c-0.311,0.826-0.467,1.346-0.467,1.557c0,0.17,0.034,0.297,0.102,0.383c0.067,0.084,0.166,0.127,0.295,0.127
		C107.792,175.051,108.301,174.531,108.887,173.494z M108.237,164.1c0-0.211,0.074-0.391,0.224-0.541
		c0.149-0.148,0.329-0.225,0.54-0.225s0.392,0.076,0.541,0.225c0.149,0.15,0.225,0.33,0.225,0.541s-0.075,0.393-0.225,0.545
		s-0.33,0.229-0.541,0.229c-0.217,0-0.398-0.078-0.545-0.232C108.309,164.484,108.237,164.305,108.237,164.1z"/>
	<path style="fill:#161616;" d="M125.375,173.768h0.448c-0.352,0.633-0.711,1.107-1.077,1.424s-0.739,0.475-1.12,0.475
		c-0.264,0-0.491-0.082-0.681-0.242c-0.191-0.16-0.286-0.4-0.286-0.717c0-0.264,0.135-0.785,0.404-1.564l0.94-2.68
		c0.252-0.732,0.378-1.207,0.378-1.424c0-0.193-0.043-0.338-0.128-0.432s-0.215-0.141-0.391-0.141c-0.445,0-1.027,0.523-1.744,1.57
		c-0.719,1.045-1.335,2.414-1.851,4.107l-0.431,1.406h-1.072l1.547-4.992c0.281-0.92,0.422-1.447,0.422-1.582
		c0-0.1-0.018-0.172-0.053-0.219s-0.091-0.07-0.167-0.07c-0.346,0-0.756,0.428-1.23,1.283h-0.404
		c0.732-1.33,1.427-1.996,2.083-1.996c0.229,0,0.4,0.07,0.514,0.207c0.115,0.139,0.172,0.348,0.172,0.629
		c0,0.504-0.196,1.283-0.589,2.338c1.061-2.115,2.092-3.174,3.094-3.174c0.322,0,0.604,0.107,0.844,0.322
		c0.24,0.213,0.36,0.525,0.36,0.936c0,0.264-0.12,0.756-0.36,1.477l-0.94,2.803c-0.252,0.756-0.378,1.178-0.378,1.266
		c0,0.111,0.027,0.195,0.083,0.252c0.056,0.055,0.137,0.082,0.242,0.082c0.199,0,0.413-0.111,0.642-0.338
		C124.874,174.549,125.117,174.213,125.375,173.768z"/>
	<path style="fill:#161616;" d="M137.285,173.311c-0.381-0.211-0.667-0.484-0.857-0.822c-0.19-0.336-0.285-0.74-0.285-1.209
		c0-0.855,0.305-1.617,0.914-2.289c0.609-0.67,1.298-1.006,2.065-1.006c0.24,0,0.464,0.037,0.673,0.113
		c0.207,0.076,0.396,0.193,0.566,0.352c0.393-0.322,0.718-0.482,0.976-0.482c0.211,0,0.384,0.061,0.519,0.18
		c0.135,0.121,0.202,0.271,0.202,0.453c0,0.281-0.135,0.422-0.404,0.422c-0.152,0-0.302-0.1-0.448-0.299
		c-0.094-0.129-0.188-0.193-0.281-0.193c-0.1,0-0.202,0.072-0.308,0.219c0.234,0.387,0.352,0.848,0.352,1.381
		c0,1.014-0.296,1.812-0.888,2.398c-0.598,0.586-1.324,0.936-2.18,1.047c-1.271,0.164-1.907,0.504-1.907,1.02
		c0,0.164,0.073,0.299,0.22,0.404s0.454,0.207,0.923,0.307c0.814,0.182,1.479,0.346,1.995,0.492s0.897,0.361,1.146,0.646
		c0.249,0.283,0.374,0.619,0.374,1.006c0,0.598-0.305,1.123-0.914,1.574s-1.477,0.676-2.602,0.676c-1.061,0-1.887-0.172-2.479-0.518
		s-0.888-0.777-0.888-1.293c0-0.381,0.144-0.701,0.431-0.961c0.287-0.262,0.533-0.393,0.738-0.393s0.308,0.076,0.308,0.229
		c0,0.082-0.07,0.197-0.211,0.344c-0.24,0.258-0.36,0.51-0.36,0.756c0,0.381,0.193,0.717,0.58,1.01s0.979,0.439,1.775,0.439
		c0.855,0,1.504-0.146,1.946-0.439s0.664-0.635,0.664-1.027c0-0.311-0.155-0.562-0.466-0.756s-0.984-0.41-2.021-0.65
		c-0.902-0.211-1.462-0.432-1.679-0.66c-0.223-0.223-0.334-0.465-0.334-0.729c0-0.369,0.188-0.719,0.562-1.051
		C136.078,173.67,136.605,173.439,137.285,173.311z M137.1,172.07c0,0.328,0.093,0.592,0.276,0.791
		c0.186,0.199,0.415,0.299,0.69,0.299c0.322,0,0.61-0.129,0.866-0.387c0.254-0.258,0.503-0.734,0.746-1.432s0.365-1.293,0.365-1.785
		c0-0.404-0.072-0.707-0.215-0.908c-0.145-0.203-0.359-0.305-0.646-0.305c-0.516,0-0.992,0.428-1.428,1.279
		C137.318,170.477,137.1,171.291,137.1,172.07z"/>
	<path style="fill:#161616;" d="M154.888,173.486c0,0.545-0.21,1.045-0.629,1.498s-1.035,0.682-1.85,0.682
		c-0.604,0-1.057-0.135-1.357-0.4c-0.303-0.266-0.453-0.553-0.453-0.857c0-0.164,0.045-0.305,0.137-0.422
		c0.09-0.117,0.206-0.176,0.347-0.176c0.316,0,0.475,0.168,0.475,0.502c0,0.076-0.018,0.184-0.053,0.324
		c-0.023,0.064-0.035,0.115-0.035,0.15c0,0.141,0.091,0.262,0.272,0.365c0.182,0.102,0.398,0.152,0.65,0.152
		c0.393,0,0.75-0.123,1.072-0.373c0.322-0.248,0.483-0.594,0.483-1.033c0-0.381-0.226-0.98-0.677-1.801
		c-0.527-0.949-0.791-1.645-0.791-2.084c0-0.562,0.223-1.037,0.668-1.424s0.952-0.58,1.521-0.58c0.416,0,0.771,0.105,1.067,0.316
		s0.444,0.438,0.444,0.678c0,0.311-0.129,0.465-0.387,0.465c-0.193,0-0.334-0.172-0.422-0.518c-0.094-0.381-0.349-0.572-0.765-0.572
		c-0.334,0-0.624,0.092-0.87,0.273s-0.369,0.418-0.369,0.711c0,0.398,0.196,0.947,0.589,1.645c0.369,0.633,0.616,1.115,0.742,1.449
		S154.888,173.135,154.888,173.486z"/>
</g>
</svg>
