<svg version="1.1" id="Layer_1" xmlns="http://www.w3.org/2000/svg" xmlns:xlink="http://www.w3.org/1999/xlink" x="0px" y="0px"
	 viewBox="161.377 186.666 475.119 427.813"
	 enable-background="new 161.377 186.666 475.119 427.813" xml:space="preserve">
<path fill="#FFFFFF" d="M441.846,429.345c-2.716-7.436-6.163-14.686-7.121-22.595c-0.844-1.522-1.567-3.265-2.181-5.257
	c-2.014-6.553-5.113-12.77-7.717-19.141c-4.562-11.178-8.906-22.45-13.765-33.496c-0.975-2.217-9.778-21.606-11.234-30.258
	c-1.854-4.493-3.368-8.057-4.772-11.651c-4.219-10.796-8.497-21.571-12.525-32.44c-2.248-6.066-3.765-12.41-6.102-18.438
	c-6.226-16.055-12.755-31.992-19.086-48.008c-2.448-6.197-5.54-8.627-12.01-8.482c-3.078,0.068-5.93,0.134-8.646-1.787
	c-1.06-0.748-3.282-1.169-4.209-0.564c-4.436,2.894-10.912,3.604-11.847,10.528c-0.132,0.978-1.029,1.87-1.633,2.763
	c-3.984,5.893-8.112,11.693-11.946,17.681c-4.299,6.714-8.259,13.643-12.509,20.389c-5.4,8.571-10.99,17.022-16.404,25.585
	c-2.184,3.452-3.984,7.148-6.194,10.581c-3.851,5.978-7.93,11.808-11.83,17.754c-7.34,11.188-14.84,22.273-21.863,33.656
	c-7.587,12.298-14.734,24.868-22.019,37.353c-4.554,7.807-8.405,16.104-13.669,23.389c-5.663,7.838-9.053,16.639-13.033,25.211
	c-2.633,5.67-0.759,11.274,2.557,15.877c1.507,2.09,5.632,2.111,7.76,3.988c2.268,2,2.738,5.721,6.485,6.608
	c5.993,1.42,11.806,3.996,18.178,2.426c3.105-0.764,6.141-1.977,9.286-2.391c12.378-1.623,24.771-3.162,37.187-4.44
	c12.441-1.281,24.902-2.529,37.386-3.218c13.126-0.723,26.286-0.916,39.437-1.069c23.271-0.275,46.567-1.246,69.724,2.271
	c4.261,0.648,8.578,0.932,12.873,1.33c7.591,0.707,11.623-3.395,10.91-10.994c-0.076-0.811,0.104-1.646,0.212-3.104
	C441.633,429.382,441.739,429.362,441.846,429.345z M399.649,418.21c-6,0.552-13.367,1.039-19.386,1.383
	c-10.823,1.9-16.68,3.126-27.511,4.797c-5.84,1.156-9.542,1.527-13.708,1.722c-17.212,0.799-34.424,1.641-51.617,2.754
	c-16.974,1.098-33.916,2.688-50.891,3.762c-4.915,0.311-9.907-0.271-14.837-0.73c-1.864-0.172-3.765-0.938-5.452-1.812
	c-3.784-1.969-3.915-3.172-2.804-7.305c4.934-18.365,14.408-34.482,24.443-50.365c11.609-18.377,22.999-36.891,34.614-55.262
	c8.523-13.479,17.312-26.789,25.885-40.235c9.482-14.871,18.705-29.911,28.371-44.66c2.726-4.157,4.707-9.258,10.342-11.799
	c9.041,9.659,13.407,21.16,17.938,32.571c1.106,2.791,2.265,5.562,3.311,8.377c4.868,13.086,9.644,26.209,14.571,39.272
	c4.607,12.212,9.288,24.399,14.131,36.52c0.792,1.981,8.951,28.966,9.351,28.669c4.206,5.863,19.126,44.145,19.479,50.022
	C410.031,416.612,405.576,417.663,399.649,418.21z"/>
<path fill="#FFFFFF" d="M598.254,412.167c-0.922-4.148-2.797-8.102-4.43-12.066c-0.816-1.979-2.264-3.698-3.053-5.686
	c-3.423-8.605-6.15-17.539-10.195-25.834c-4.062-8.324-5.562-17.428-9.57-25.82c-5.312-11.131-8.779-23.136-13.846-34.469
	c-3.857-8.63-7.197-17.504-10.492-26.371c-6.004-16.158-11.949-32.342-17.637-48.613c-4.338-12.406-8.388-24.921-12.279-37.476
	c-2.715-8.755-10.492-11.63-18.453-6.915c-2.82,1.671-6.426,1.988-9.641,3.031c-2.375,0.771-5.273,1.115-6.928,2.703
	c-4.32,4.148-8.453,8.604-11.982,13.434c-4.92,6.734-9.262,13.894-13.779,20.916c-6.647,10.33-13.375,20.613-19.803,31.078
	c-5.412,8.812-10.104,18.08-15.742,26.74c-6.699,10.287-13.213,20.613-17.803,32.051c-0.359,0.893-1.332,1.537-3.104,3.496
	c-0.032-0.079-0.062-0.151-0.096-0.23c-1.603,5.136-5.89,9.213-8.351,13.914c-1.244,2.379-4.404,8.65-5.056,9.675
	c-2.879,4.528-5.729,9.083-8.364,13.756c-3.586,6.355-6.931,12.847-10.429,19.251c-5.67,10.385-11.539,20.665-16.975,31.168
	c-1.527,2.95-2.24,6.489-2.617,9.84c-0.061,0.544-0.137,1.047-0.223,1.531c0.449,2.682,0.713,5.418,1.379,8.102
	c1.059,4.262,3.44,7.779,6.856,10.189c17.65,0.758,35.439-0.119,52.825-3.259c9.242-1.67,18.263-4.219,27.64-5.123
	c6.62-0.641,13.268-0.811,19.903-0.545c4.736-0.047,9.476-0.033,14.199,0.176c13.367,0.593,26.721,1.48,40.078,2.298
	c8.611,0.526,17.225,1.719,25.824,1.6c14.532-0.203,28.848,0.459,42.83,4.912c5.137,1.637,11.278-4.426,10.233-9.723
	c-0.926-4.688-0.926-4.688,3.662-6.921C598.303,420.319,599.615,418.294,598.254,412.167z M569.115,417.761
	c-2.754,2.103-5.748,2.625-9.113,2.619c-7.973-0.008-15.947,0.359-23.922,0.348c-4.309-0.006-8.619-0.432-12.922-0.754
	c-12.033-0.901-24.053-2.037-36.099-2.721c-9.034-0.512-18.1-0.521-27.153-0.643c-3.648-0.052-7.303,0.188-10.955,0.317
	c-0.779,0.028-1.521,0.015-2.24-0.02c-4.213,0.67-8.477,1.053-12.707,1.229c-7.893,0.334-15.846,0.041-23.646-1.261
	c-4.517,0.59-9.06,1.203-13.62,1.624c-6.219,0.572-12.463,0.855-18.699,1.217c-1.723,0.101-3.572,0.394-5.145-0.1
	c-1.119-0.353-2.646-1.873-2.644-2.867c0.008-2.539,0.232-5.342,1.33-7.564c3.432-6.938,7.307-13.662,11.016-20.464
	c1.752-3.213,3.529-6.412,5.277-9.627c1.762-3.242,3.25-6.684,6.219-9.486c1.269-2.176,2.881-4.229,4.074-6.031
	c2.097-3.167,3.253-6.755,4.884-10.166c2.004-4.193,4.332-8.18,6.938-12.025c0.035-0.051,0.076-0.084,0.119-0.116
	c0.577-1.507,1.356-2.99,2.217-4.5c6.506-11.43,12.731-23.022,19.387-34.366c6.535-11.141,13.344-22.125,20.242-33.047
	c5.975-9.457,11.848-19.021,18.52-27.978c4.318-5.795,7.98-12.348,14.369-16.465c1.164-0.749,1.738-2.401,2.604-3.624
	c0.987-1.402,1.785-3.029,3.033-4.146c6.866-6.134,7.688-5.853,11.125,2.79c6.131,15.41,12.51,30.724,18.45,46.205
	c3.476,9.054,6.086,18.436,9.48,27.523c3.678,9.853,7.861,19.516,11.731,29.297c1.744,4.406,3.175,8.938,4.908,13.35
	c3.226,8.207,6.633,16.344,9.851,24.555c3.682,9.398,6.772,19.061,11.002,28.201c3.289,7.105,6.102,14.26,7.844,21.859
	c0.231,1.015,0.297,2.064,0.473,3.34C572.826,415.651,570.795,416.476,569.115,417.761z"/>
<path fill="#FFFFFF" d="M215.249,525.415c-0.379-2.619,1.313-4.85,2.655-6.887c1.948-2.953,4.653-5.406,7.043-8.068
	c1.099-1.223,2.24-2.41,3.321-3.648c2.566-2.944,5.303-5.768,7.604-8.909c2.354-3.211,5.479-4.57,9.198-4.681
	c2.521-0.069,4.351,1.416,5.864,3.449c2.412,3.236,3.117,7.135,4.516,10.766c0.185,0.479,0.252,1.003,0.438,1.48
	c1.239,3.168,1.805,3.412,5.066,2.691c5.716-1.267,11.432-2.543,17.184-3.625c1.888-0.355,3.885-0.13,5.832-0.154
	c1.243-0.019,2.311,0.313,2.51,1.731c0.182,1.289-0.036,2.529-1.352,3.17c-1.2,0.587-2.48,1.009-3.697,1.562
	c-4.719,2.148-9.73,3.312-14.734,4.539c-1.357,0.334-2.66,1.059-3.861,1.809c-0.998,0.623-1.191,1.713-0.492,2.711
	c1.238,1.771,2.574,3.468,3.857,5.205c0.963,1.304,2.107,2.521,2.816,3.953c1.055,2.138,0.501,3.793-1.32,5.16
	c-1.613,1.207-3.113,1.07-4.969-0.545c-2.545-2.213-4.834-4.627-7.965-6.227c-5.285-2.699-10.836-3.884-16.643-3.839
	c-3.892,0.029-7.791,0.515-11.662,0.99c-1.147,0.142-2.387,0.742-3.277,1.496c-1.627,1.377-3.185,2.219-5.307,1.188
	C215.943,529.798,215.212,528.458,215.249,525.415z M234.043,516.485c1.395,0.178,2.358,0.422,3.313,0.395
	c1.331-0.039,2.666-0.227,3.98-0.451c1.723-0.295,3.465-0.563,5.13-1.071c2.016-0.613,2.338-1.511,1.682-3.482
	c-0.388-1.164-0.646-2.369-1.009-3.541c-0.582-1.873-1.605-2.65-3.445-2.168c-1.231,0.322-2.539,0.973-3.424,1.863
	c-1.729,1.742-3.222,3.727-4.734,5.67C234.999,514.388,234.69,515.255,234.043,516.485z"/>
<path fill="#FFFFFF" d="M580.458,512.517c2.827-0.245,5.67-0.377,8.478-0.764c6.304-0.871,12.574-1.969,18.883-2.785
	c4.062-0.524,8.175-0.66,12.254-1.078c2.556-0.26,5.089-0.752,7.64-1.084c4.547-0.592,5.321-0.409,8.708,1.861
	c0.341,1.928-0.467,3.066-2.34,3.693c-5.38,1.803-10.839,3.241-16.481,3.93c-0.409,0.049-0.854,0.02-1.221,0.17
	c-4.627,1.92-9.663,1.592-14.463,2.652c-7.618,1.684-15.33,3.034-23.062,4.08c-3.897,0.526-7.931,1.118-11.897-0.269
	c-3.655-1.277-5.133-3.783-4.354-7.615c0.632-3.108,2.671-5.307,4.817-7.284c3.458-3.187,7.205-6.056,10.802-9.095
	c0.578-0.487,1.004-1.158,1.908-2.227c-2.272-0.295-3.986-0.812-5.646-0.672c-4.169,0.348-8.326,0.916-12.461,1.563
	c-1.171,0.185-2.267,0.916-3.372,1.445c-2.359,1.131-6.003,0.531-7.291-1.232c-2.092-2.86-1.979-6.127,0.354-8.432
	c0.41-0.404,1-0.734,1.562-0.859c2.71-0.604,5.418-1.286,8.164-1.646c6.949-0.91,13.931-1.236,20.866,0.068
	c1.465,0.274,2.978,0.961,4.17,1.854c2.184,1.637,4.64,2.998,5.836,5.762c1.005,2.316,0.487,4.115-0.93,5.996
	c-2.507,3.324-5.793,5.795-8.896,8.476c-0.896,0.771-1.624,1.731-2.43,2.604C580.188,511.927,580.323,512.222,580.458,512.517z"/>
<path fill="#FFFFFF" d="M502.066,501.64c0.743,0.545,21.5-2.312,23.783-1.641c1.842,1.578,0.967,3.164-0.72,4.158
	c-0.608,0.358-1.318,0.598-2.015,0.754c-4.914,1.094-9.858,2.063-14.747,3.262c-1.977,0.484-3.862,1.383-5.731,2.221
	c-0.547,0.246-0.892,0.941-1.488,1.609c-0.646,2.387,5.02,0.807,7.379,0.262c4.41-1.018,8.813-2.062,13.239-3.01
	c3.286-0.705,6.518-0.258,9.671,0.82c1.287,0.438,2.121,1.354,2.172,2.713c0.054,1.404-0.744,2.234-2.128,2.635
	c-4.151,1.199-8.299,2.422-12.416,3.729c-3.893,1.235-7.739,2.604-11.616,3.881c-0.672,0.221-1.396,0.367-2.102,0.391
	c-2.261,0.076-4.523,0.131-6.783,0.076c-0.687-0.018-1.412-0.318-2.033-0.652c-2.771-1.483-5.326-3.401-6.619-6.258
	c-0.85-1.877-1.064-4.188-1.014-6.289c0.075-3.19,0.703-6.365,2.354-9.192c1.22-2.091,1.891-4.293,2.128-6.707
	c0.338-3.437,0.748-3.484,3.914-4.55c2.44-0.821,4.731-0.592,7.188-0.506c4.616,0.162,9.258-0.137,13.88-0.396
	c6.769-0.381,13.527-0.928,20.296-1.322c1.214-0.07,2.463,0.195,3.675,0.422c1.789,0.332,2.775,1.39,2.76,2.795
	c-0.015,1.357-1.046,2.64-2.646,3.029c-2.591,0.635-5.208,1.168-7.815,1.738c-2.206,0.481-11.91,1.108-14.127,1.528
	c-1.279,0.242-16.58,1.722-17.875,1.875C501.441,499.64,501.066,501.202,502.066,501.64z"/>
<path fill="#FFFFFF" d="M453.871,511.866c-1.363,0.149-2.504,0.102-3.529,0.42c-4.699,1.463-9.385,2.973-14.023,4.611
	c-0.858,0.305-1.821,1.159-2.128,1.987c-0.557,1.5-0.654,3.17-0.921,4.64c0.339,0.303,0.476,0.532,0.64,0.555
	c3.254,0.434,4.67,2.854,2.75,5.586c-1.483,2.111-3.583,4.062-5.84,5.297c-3.49,1.908-6.353,0.471-7.374-3.744
	c-0.577-2.375-0.23-5.127,0.317-7.569c0.36-1.607,0.321-2.728-0.658-3.955c-1.394-1.744-1.577-3.701-1.037-5.847
	c0.382-1.518,1.081-2.408,2.592-3.11c1.386-0.646,2.885-1.875,3.487-3.224c1.794-4.02,3.294-8.184,4.673-12.367
	c1.062-3.223,1.756-6.567,2.648-9.848c0.216-0.791,0.506-1.578,0.88-2.307c0.78-1.521,1.387-1.668,2.986-0.877
	c3.533,1.75,4.713,4.174,3.616,8.151c-1.115,4.049-2.493,8.025-3.718,12.045c-0.312,1.021-0.482,2.086-0.756,3.302
	c3.069,0.442,5.459-0.687,7.932-1.164c2.018-0.392,3.979-1.08,6.006-1.392c2.015-0.309,3.51-1.145,4.297-3.049
	c1.881-4.555,3.79-9.098,5.58-13.688c0.746-1.912,1.174-3.947,1.825-5.9c1.06-3.178,3.098-3.768,5.839-1.746
	c2.859,2.109,3.395,4.09,2.018,7.459c-1.323,3.238-2.722,6.447-3.94,9.728c-0.78,2.094-1.63,4.168,0.637,6.19
	c1.382,1.234,1.023,3.318-0.766,4.172c-4.769,2.273-5.741,6.424-5.955,11.008c-0.135,2.875-0.032,5.761-0.045,8.64
	c-0.004,1.133,0.042,2.27-0.064,3.393c-0.105,1.138-0.313,2.304-1.672,2.687c-1.539,0.434-3.118,0.188-3.82-1.215
	c-0.99-1.982-1.948-4.146-2.171-6.312c-0.354-3.459-0.088-6.984-0.1-10.479C454.072,513.438,453.979,512.938,453.871,511.866z"/>
<path fill="#FFFFFF" d="M171.446,512.874c2.066,0.211,3.785,0.637,5.464,0.514c6.355-0.465,12.699-1.1,19.045-1.69
	c3.057-0.285,6.338,1.17,7.479,3.371c1.287,2.477,0.646,6.362-1.691,8.487c-2.201,2.002-4.621,3.767-6.976,5.595
	c-1.855,1.44-3.766,2.807-5.637,4.227c-2.843,2.156-5.91,4.008-8.064,7.027c-1.148,1.606-2.965,2.494-5.139,2.313
	c-2.026-0.166-3.051-0.871-3.561-2.785c-0.753-2.823-0.232-5.396,2.025-7.317c1.874-1.597,3.955-2.947,5.961-4.385
	c2.003-1.435,4.048-2.812,6.031-4.275c0.682-0.504,1.229-1.189,1.838-1.791c-0.092-0.24-0.185-0.478-0.277-0.717
	c-0.735,0-1.474-0.045-2.206,0.008c-3.998,0.289-7.993,0.633-11.993,0.897c-3.086,0.207-5.964-0.823-8.548-2.25
	c-2.823-1.561-3.969-4.379-3.804-7.604c0.219-4.258,2.397-7.531,5.914-9.604c5.117-3.02,10.323-5.979,15.766-8.321
	c7.142-3.078,14.438-2.836,21.515,0.711c1.428,0.715,2.304,1.647,2.377,3.287c0.102,2.287-1.41,4.371-4.079,3.317
	c-4.132-1.627-8.45-1.901-12.75-0.746c-1.95,0.523-3.856,1.324-5.663,2.236c-3.288,1.656-6.492,3.48-9.72,5.254
	C173.293,509.435,172.042,510.44,171.446,512.874z"/>
<path fill="#FFFFFF" d="M321.981,503.659c-1.324,1.211-2.352,1.787-2.844,2.662c-2.466,4.385-4.831,8.828-7.134,13.301
	c-0.504,0.981-0.729,2.156-0.869,3.268c-0.283,2.279-1.604,3.97-2.99,5.617c-1.271,1.51-2.737,2.353-4.871,1.488
	c-2.176-0.881-3.135-2.48-3.487-4.646c-0.402-2.471,0.579-4.592,1.515-6.784c1.287-3.011,2.281-6.146,3.555-9.162
	c1.182-2.802,1.833-5.703,1.814-8.701c-0.016-2.631,1.411-4.476,2.957-6.248c1.321-1.521,2.521-1.68,4.029-0.363
	c1.636,1.426,3.042,1.392,4.696,0.226c2.113-1.49,4.015-1.193,6.253,0.188c2.598,1.605,4.364,3.488,5.391,6.41
	c1.391,3.963,3.022,7.867,4.891,11.629c2.562,5.162,4.056,5.219,7.355,0.547c3.262-4.617,6.551-9.213,8.947-14.391
	c0.852-1.838,2.149-3.512,3.467-5.072c0.469-0.553,1.67-0.844,2.406-0.676c0.426,0.096,0.79,1.332,0.836,2.078
	c0.264,4.363-1.152,8.326-3.171,12.096c-2.428,4.533-4.981,8.998-7.364,13.555c-0.65,1.246-1.142,2.695-1.238,4.082
	c-0.133,1.865-0.836,3.324-1.959,4.734c-1.549,1.947-3.223,2.508-5.334,1.258c-1.387-0.819-2.695-1.908-3.75-3.125
	c-3.164-3.653-6.381-7.307-8.279-11.842c-0.987-2.361-1.795-4.801-2.725-7.188C323.528,507.188,322.897,505.808,321.981,503.659z"/>
<path fill="#FFFFFF" d="M382.212,506.515c1.553,1.058,2.84,1.519,4.346,1.152c3.691-0.896,7.375-1.836,11.08-2.678
	c4.427-1.002,8.669-2.494,12.792-4.383c0.909-0.418,1.998-0.482,3.017-0.615c1.078-0.144,2.277,0.016,2.588,1.151
	c0.239,0.878,0.205,2.25-0.329,2.834c-1.434,1.572-3.04,3.123-4.872,4.16c-2.846,1.611-6.031,2.621-8.896,4.207
	c-2.337,1.293-4.767,2.248-7.281,3.019c-4.312,1.315-8.604,2.973-13.252,2.02c-5.679-1.164-9.3-4.957-8.384-11.846
	c0.65-4.896,3.666-8.232,7.06-11.219c2.371-2.086,5.17-3.75,7.953-5.281c4.332-2.381,9.979,0.162,11.408,4.924
	c0.917,3.066-1.021,5.453-3.927,4.48c-4.912-1.644-8.098,0.78-10.94,4.155C383.622,503.724,383.021,505.146,382.212,506.515z"/>
<g>
	<path fill="#FFFFFF" d="M422.941,569.015c9.418,1.76,19.202,2.918,27.871,7.705c4.706,2.599,6.03,6.291,4.86,11.365
		c-1.86,8.07-7.58,12.896-14.865,16.578c-3.319,1.68-6.944,2.807-9.815,5.324c-1.793,1.571-5.131,0.969-7.178-0.92
		c-0.556-0.515-0.906-1.554-1.488-1.656c-3.705-0.658-4.103-3.629-5.4-6.17c-3.139-6.144-5.69-12.48-7.981-18.933
		c-1.054-2.965-0.168-5.217,1.569-7.897C413.502,569.802,418.018,569.608,422.941,569.015z M418.654,580.14
		c0.045,0.541,0.004,1.043,0.139,1.496c1.924,6.474,6.008,11.982,9.057,17.953c0.597,1.166,1.757,1.394,3.037,0.785
		c1.502-0.713,3.199-1.172,4.504-2.117c3.427-2.486,6.966-4.926,9.922-7.863c2.408-2.395,1.435-5.315-1.909-6.491
		c-4.636-1.629-9.396-2.939-14.136-4.293c-1.467-0.418-3.022-0.667-4.555-0.746C422.643,578.754,420.547,578.843,418.654,580.14z"/>
	<path fill="#FFFFFF" d="M254.608,593.966c-6.078-0.502-11.779,1.205-16.752-2.201c-2.641-1.811-5.19-3.784-5.495-7.263
		c-0.182-2.07,0.287-3.909,1.496-5.657c1.864-2.696,3.459-5.569,5.456-8.172c3.008-3.914,6.322-7.631,11.133-9.698
		c4.002-1.72,8.01-0.892,11.842,0.577c1.764,0.677,2.883,3.229,2.516,4.7c-0.426,1.71-2.111,2.661-4.646,2.615
		c-0.129-0.003-0.26-0.072-0.387-0.067c-2.691,0.113-5.586-0.975-7.992,0.91c-2.955,2.313-5.502,4.951-6.746,8.512
		c-0.32,0.916-0.797,1.812-1.357,2.621c-1.41,2.033-0.971,3.646,1.576,3.963c2.564,0.32,5.25,0.188,7.826-0.133
		c2.449-0.306,4.811-1.189,7.242-1.679c3.443-0.69,6.516-1.073,8.859,2.071c0.975,1.305,1.352,2.432,0.479,3.715
		c-2.105,3.1-4.16,6.246-6.516,9.172c-3.809,4.729-7.801,9.332-11.803,13.92c-1.355,1.555-3.094,2.91-5.398,2.549
		c-1.795-0.281-3.877-0.904-4.307-2.801c-0.404-1.781,0.09-3.568,1.648-5.072c3.211-3.098,6.262-6.346,9.301-9.596
		C253.399,596.077,253.938,594.97,254.608,593.966z"/>
	<path fill="#FFFFFF" d="M521.469,587.306c-0.522-3.028,0.002-6.161,1.775-9.073c1.176-1.933,2.475-3.593,4.918-4.511
		c1.82-0.686,3.227-2.338,4.838-3.536c2.188-1.63,4.355-1.802,6.934-0.498c1.654,0.836,3.699,1.134,5.609,1.332
		c3.549,0.366,5.055,1.889,4.238,5.104c-0.508,2.002-0.082,3.678,0.967,5.32c4.602,7.205,3.199,13.951-1.756,20.405
		c-1.291,1.687-2.484,3.515-4.094,4.888c-4.627,3.949-11.877,3.61-16.468-0.361c-4.717-4.084-5.975-9.457-6.709-15.068
		C521.561,590.075,521.561,588.825,521.469,587.306z M532.588,581.056c-2.102,4.031-1.182,7.812-0.354,11.509
		c0.366,1.643,1.176,3.354,2.278,4.657c2.259,2.664,4.927,2.502,5.953-0.45c0.48-1.388,1.51-2.595,2.103-3.955
		c2.002-4.605,0.412-7.4-3.414-9.307C537.215,582.544,535.061,581.962,532.588,581.056z"/>
	<path fill="#FFFFFF" d="M318.727,613.509c-7.855-1.688-9.439-7.901-11.212-13.387c-1.772-5.486-2.57-11.301-2.38-17.161
		c0.097-2.956-1.43-3.729-4.347-2.399c-2.131,0.972-4.155,2.15-6.232,3.229c-4.364,2.266-6.175,2.107-10.338-0.898
		c0.02-4.643,0.896-5.725,5.399-7.414c3.422-1.282,6.802-2.69,10.099-4.235c1.099-0.517,2.062-1.517,2.775-2.496
		c1.781-2.451,4.987-4.203,7.555-3.078c2.697,1.182,4.868,0.229,7.192-0.404c4.541-1.239,9.013-2.71,13.57-3.884
		c1.956-0.503,4.105-0.831,6.414,0.972c-1.043,1.179-1.783,2.566-2.978,3.256c-3.448,1.988-7.01,3.835-10.661,5.47
		c-3.187,1.426-6.555,2.486-9.912,3.736c-0.061,1.229-0.304,2.237-0.127,3.176c1.36,7.186,2.756,14.367,4.266,21.526
		c0.245,1.16,1.031,2.25,1.717,3.287c0.551,0.832,1.375,1.5,1.992,2.302c2.312,2.987,2.192,4.26-0.605,6.715
		C320.243,612.405,319.496,612.917,318.727,613.509z"/>
	<path fill="#FFFFFF" d="M375.345,600.591c0.277-0.557,0.525-1.004,0.728-1.471c2.969-6.824,4.66-13.914,4.619-21.303
		c-0.015-2.453-0.662-4.901-0.716-7.357c-0.059-2.813,3.336-5.25,6.187-4.59c1.166,0.271,1.91,0.809,2.229,2.203
		c1.332,5.767,1.427,11.607,1.173,17.427c-0.121,2.788-1.183,5.577-2.068,8.292c-1.041,3.18-2.285,6.307-3.59,9.4
		c-0.479,1.135-1.281,2.182-2.105,3.139c-3.99,4.633-10.281,5.027-15.086,0.529c-3.926-3.677-5.383-8.461-6.631-13.271
		c-1.494-5.758-2.672-11.587-3.93-17.396c-0.232-1.08-0.234-2.212-0.263-3.322c-0.055-2.281,1.3-3.396,4.732-3.974
		c2.086-0.35,3.537,0.354,4.168,2.373c0.701,2.248,1.166,4.564,1.664,6.865c1.1,5.086,2.113,10.189,3.244,15.269
		C370.351,596.323,372.272,598.427,375.345,600.591z"/>
	<path fill="#FFFFFF" d="M490.703,574.812c1.963,7.843,3.723,15.326,5.756,22.744c0.674,2.457,2.107,4.722,3.094,7.109
		c0.595,1.441,1.554,3.014,1.371,4.414c-0.385,2.979-3.539,3.945-6.287,2.471c-5.032-2.707-7.297-7.037-8.557-12.092
		c-1.113-4.455-2.332-8.885-3.527-13.322c-0.192-0.717-0.289-1.633-0.801-2.063c-2.217-1.873-1.459-3.939-0.756-6.093
		c1.07-3.285,2.42-4.206,5.943-3.812C488.096,574.298,489.236,574.558,490.703,574.812z"/>
	<path fill="#FFFFFF" d="M481.336,546.604c1.691,1.507,3.182,2.854,4.697,4.177c1.344,1.172,1.524,2.711,0.817,4.057
		c-0.641,1.217-1.35,2.771-3.396,2.604c-0.633-0.053-1.289,0.219-1.939,0.234c-2.762,0.069-5.893-1.482-5.965-3.27
		c-0.062-1.528,0.367-3.18,1.021-4.591c0.385-0.83,1.612-1.332,2.502-1.931C479.695,547.468,480.383,547.139,481.336,546.604z"/>
</g>
</svg>
